<svg version="1.1" id="Layer_1" xmlns="http://www.w3.org/2000/svg" xmlns:xlink="http://www.w3.org/1999/xlink" x="0px" y="0px"
	 width="100%" viewBox="0 0 1024 1024" enable-background="new 0 0 1024 1024" xml:space="preserve">
<path fill="#000000" opacity="1.000000" stroke="none" 
	d="
M762.140137,636.988159 
	C755.362915,651.835693 746.188782,664.320923 733.129639,673.717163 
	C731.307312,675.028442 730.079163,676.544495 729.734314,678.940796 
	C725.722717,706.814697 709.784241,727.193787 688.011963,743.418396 
	C660.903320,763.619629 630.872803,767.838989 599.035645,756.909912 
	C574.976379,748.650757 559.549438,726.018555 558.812622,699.655151 
	C558.744873,697.231262 559.374023,694.678467 557.737427,691.925537 
	C550.270935,695.034546 542.658081,697.755249 533.577637,697.243164 
	C539.348145,707.500183 542.830872,717.608826 543.809753,728.525085 
	C544.382812,734.915283 544.194824,741.173828 541.961060,747.250671 
	C540.822144,750.348999 538.751648,751.972595 535.376526,750.722534 
	C517.685669,744.170349 500.949310,736.243713 490.241852,719.535767 
	C488.234619,716.403625 486.788300,713.100098 485.815521,709.546936 
	C485.261597,707.523560 484.403625,705.477356 481.962799,705.714600 
	C479.886993,705.916443 479.798431,708.131409 479.637939,709.683594 
	C477.866760,726.811279 467.885406,737.270874 452.662323,743.887146 
	C445.040894,747.199524 437.544739,750.938293 431.808655,757.329590 
	C430.723236,758.539001 429.252075,759.711060 427.405151,758.820740 
	C425.827209,758.060059 425.806610,756.424255 425.677795,754.919556 
	C425.060516,747.711548 422.831146,740.907898 420.420532,734.156555 
	C416.342621,722.735718 415.455322,711.346191 421.338501,700.276978 
	C424.454102,694.414917 429.219666,689.723816 434.862701,683.942383 
	C429.282288,685.660645 425.945038,688.322815 422.702820,690.978394 
	C406.443024,704.296570 387.896088,710.768616 366.851044,710.290283 
	C357.191223,710.070740 347.521973,710.281616 337.857056,710.263184 
	C335.224030,710.258179 332.249146,710.760559 330.651520,707.970276 
	C328.847656,704.819702 331.246735,702.449646 332.983948,700.416626 
	C341.316040,690.665955 349.975128,681.211487 359.831268,672.939087 
	C361.324799,671.685547 363.264648,670.784851 363.502441,668.496521 
	C362.724884,666.906616 361.204102,666.585510 359.757843,666.297363 
	C340.824524,662.525269 327.431366,650.601562 315.650330,636.327515 
	C312.360199,632.341187 309.147827,628.252747 307.259888,623.379211 
	C306.414154,621.196106 305.239258,618.673462 308.325439,616.730408 
	C311.098450,618.914062 311.564667,622.433228 314.253113,624.658875 
	C320.507843,629.836914 328.195190,629.776184 335.373535,631.511353 
	C339.085327,632.408630 342.833191,633.117798 346.521423,634.187622 
	C352.895874,636.036865 358.441956,633.385193 361.427734,627.481873 
	C362.024139,626.302673 362.650909,625.076172 363.529602,624.114380 
	C366.034119,621.373230 368.135406,621.870117 369.260284,625.482422 
	C369.698914,626.890930 369.939240,628.436401 369.895508,629.908325 
	C369.457733,644.637756 375.542511,656.637878 385.237396,667.196533 
	C386.246216,668.295227 387.405304,668.515259 388.706635,668.854370 
	C399.447723,671.653015 410.104645,671.432800 420.727509,668.237488 
	C427.569519,666.179443 434.245514,668.123413 440.929718,669.270874 
	C444.208008,669.833740 445.134277,672.890015 446.452087,675.305237 
	C452.000061,685.473083 460.479889,692.590088 470.421661,697.980164 
	C477.389252,701.757812 484.769287,701.643616 491.971313,698.201294 
	C493.929077,697.265564 495.789734,695.988892 498.037170,696.099243 
	C504.081696,696.396118 507.392334,692.335754 508.236938,687.616455 
	C509.584900,680.084351 514.296570,678.450928 520.563782,678.021667 
	C524.760803,677.734192 529.180176,677.735291 529.210449,671.647888 
	C529.212952,671.148132 530.316162,670.430298 531.033508,670.192261 
	C537.772644,667.956116 543.730408,664.398254 549.125793,659.822021 
	C549.545898,659.465698 550.305176,659.509216 551.790344,659.157776 
	C548.026367,667.993713 539.771729,670.767883 533.377869,675.500977 
	C539.352905,681.878601 547.242859,682.814514 552.907043,677.482300 
	C562.527954,668.425171 570.188599,658.932495 571.219055,644.164490 
	C572.446655,626.570251 570.293518,609.901428 566.869934,592.818848 
	C564.479797,580.892517 562.829590,568.629211 561.817322,556.375732 
	C559.882263,532.952209 559.814697,509.490143 559.884399,486.019897 
	C559.892944,483.138794 559.901062,480.355042 557.948730,477.972961 
	C557.647705,477.605682 557.373535,477.049408 557.403809,476.602020 
	C558.104919,466.248962 552.264282,456.278564 556.868896,445.487976 
	C561.601440,434.397675 559.452576,422.137604 560.321777,410.389343 
	C560.751404,404.582825 561.401855,398.789978 561.715088,392.978149 
	C562.389771,380.459778 559.733093,368.155365 559.124634,355.697449 
	C558.070618,334.117798 560.850037,314.057861 577.357971,298.201996 
	C594.114990,282.106873 613.604675,278.091217 635.459534,285.448853 
	C642.868591,287.943237 650.206116,290.741180 657.352173,293.906433 
	C670.600708,299.774689 680.693298,309.149841 687.023071,322.316925 
	C688.096069,324.549103 689.441406,326.091797 691.953491,326.812897 
	C717.437866,334.128082 739.264954,361.849762 737.179382,389.403656 
	C736.753113,395.034912 738.465637,398.423309 743.298889,401.545593 
	C761.973572,413.609314 767.902710,432.618835 770.022461,453.311646 
	C770.928345,462.154388 769.910583,470.980286 767.104675,479.465668 
	C765.734375,483.609711 766.286255,487.122406 768.590942,490.819031 
	C777.958862,505.844940 783.495056,521.921692 782.309570,540.004639 
	C781.574341,551.219543 778.282898,561.561462 773.319824,571.469666 
	C771.844299,574.415405 771.430176,577.248718 771.717041,580.566406 
	C773.401245,600.039368 769.953064,618.708069 762.140137,636.988159 
M694.117676,416.650269 
	C693.430725,417.376373 692.796143,418.162140 692.047852,418.818298 
	C688.707520,421.747742 684.924805,422.695984 681.069397,420.193970 
	C677.279663,417.734528 677.898804,413.938934 679.009277,410.280121 
	C679.647766,408.176544 680.920227,406.407562 682.394043,404.791534 
	C690.888733,395.476929 701.261414,390.581238 713.995117,392.144379 
	C718.722595,392.724670 719.837708,390.860992 719.880554,386.694214 
	C720.035583,371.611420 712.769470,360.327942 701.704590,351.079773 
	C698.599731,348.484680 695.036377,346.272858 690.939026,345.764069 
	C689.504578,347.361145 689.539673,349.110168 689.079224,350.688232 
	C686.150574,360.725220 682.443726,370.300781 673.565125,376.807129 
	C667.269409,381.420715 660.655640,381.415375 657.545349,376.780640 
	C654.783142,372.664612 656.973267,366.714935 663.148193,362.578461 
	C668.364075,359.084503 671.531250,354.205750 672.148804,348.221893 
	C673.385315,336.240387 669.070557,319.897827 656.453796,312.670776 
	C646.529541,306.986084 635.887024,303.190765 624.871765,300.420380 
	C604.021912,295.176605 585.288574,308.778412 579.305420,326.245361 
	C574.028320,341.651367 575.187256,357.802124 576.056641,373.789337 
	C576.214783,376.697266 577.932312,376.896484 580.241516,376.161560 
	C584.898193,374.679504 589.059143,372.382721 592.934265,369.366791 
	C601.673828,362.564819 605.626282,353.561096 606.667480,342.705658 
	C607.257568,336.554382 610.423218,334.172028 615.340942,334.487976 
	C619.662231,334.765594 622.106140,337.969604 622.300598,343.841278 
	C622.784973,358.466522 617.193054,370.451996 606.249573,379.979248 
	C598.724976,386.530060 589.836914,390.710846 580.571289,394.143555 
	C578.059814,395.074005 576.168335,396.255280 576.136963,399.377136 
	C575.926453,420.335602 575.622437,441.293121 575.403992,462.251526 
	C575.387024,463.880157 575.564026,465.625153 577.577332,466.551422 
	C578.096558,466.357330 578.771423,466.233612 579.300232,465.886963 
	C583.516541,463.123016 587.953430,460.811798 592.984009,460.065613 
	C596.453491,459.550964 599.680481,460.320709 601.813904,463.451843 
	C603.657227,466.157135 603.781555,469.129791 602.326904,471.985382 
	C600.873901,474.837585 598.106567,476.188171 595.205383,477.112762 
	C583.781494,480.753357 578.293762,489.188477 577.108826,500.492401 
	C574.918457,521.388428 576.667358,542.422302 575.384888,563.363770 
	C575.147095,567.245972 577.844360,567.024780 580.496582,566.681702 
	C599.041443,564.282654 614.203552,570.701721 626.251404,584.650146 
	C630.169067,589.185852 633.586182,594.231018 633.351624,600.726624 
	C633.196838,605.015259 630.683105,607.348938 626.786133,608.488159 
	C623.033081,609.585144 620.755676,607.546021 618.966125,604.681458 
	C617.998291,603.132263 617.258240,601.442261 616.383667,599.833069 
	C609.475586,587.122437 593.785950,580.098938 579.734497,583.410950 
	C577.269104,583.992065 575.554504,584.970337 575.541504,588.033325 
	C575.486694,601.015808 575.315552,613.998901 575.039001,626.978638 
	C574.958252,630.765991 576.249146,632.600281 580.206970,633.350403 
	C591.737976,635.535889 600.736633,642.007812 607.359497,651.484070 
	C614.674194,661.950378 616.545227,673.512756 612.220642,685.703491 
	C610.311768,691.084412 605.676025,693.829895 601.558960,692.610718 
	C597.797913,691.496948 595.985474,687.466553 597.107483,681.709656 
	C597.753601,678.394287 598.069885,675.115356 597.763916,671.786194 
	C596.737366,660.616760 585.774902,649.891724 575.917725,650.354065 
	C575.013428,651.517334 575.246643,652.893127 575.272827,654.200256 
	C575.606140,670.848877 575.836487,687.501038 576.357361,704.143982 
	C576.744141,716.501221 582.603027,726.419800 592.423401,733.288330 
	C611.039185,746.308533 631.864258,749.317566 653.356567,742.504395 
	C678.454834,734.548157 695.873352,717.082275 708.123413,694.221375 
	C709.360840,691.911926 711.108154,689.402222 710.486816,686.315491 
	C705.919678,685.258972 701.784729,689.233948 696.641418,686.829163 
	C699.675049,684.114075 699.156372,682.099365 695.886780,680.553528 
	C693.264771,679.313904 690.768921,681.040833 688.257935,680.879272 
	C687.505371,675.391357 688.678345,673.748108 695.242310,672.058716 
	C710.958923,668.013550 724.682190,660.829529 735.303528,648.166138 
	C742.681702,639.369568 748.052490,629.730835 750.355835,618.226562 
	C747.329834,617.870911 745.613098,619.760315 743.555969,620.632874 
	C738.601990,622.734375 733.529236,624.289551 728.123962,624.264587 
	C723.912109,624.245056 719.970520,623.394226 719.058350,618.312866 
	C718.256653,613.846802 720.792603,610.394897 725.890747,608.735779 
	C730.164429,607.344910 734.595032,606.315369 738.689514,604.518433 
	C748.495605,600.214783 755.148865,592.849243 754.424744,581.810669 
	C753.174927,562.757690 745.132141,546.636536 730.656860,533.892273 
	C725.346069,529.216614 720.011414,527.417480 713.627991,532.079590 
	C711.009705,533.991760 707.822632,533.809143 705.354980,531.373352 
	C702.881714,528.932007 701.417419,526.073364 702.530090,522.362854 
	C703.830017,518.028015 707.281067,516.141968 711.011536,514.534607 
	C713.452087,513.482971 716.105652,512.830750 718.386230,511.517731 
	C740.613403,498.720520 753.032959,480.333740 752.152954,453.782898 
	C751.487854,433.717102 741.672668,418.554199 723.119324,411.188263 
	C712.672913,407.040894 702.906067,407.545776 694.117676,416.650269 
M739.658142,520.031311 
	C749.967651,527.375183 756.138245,538.308167 763.427673,548.559204 
	C769.670654,538.762085 763.883728,511.238037 753.837708,502.196960 
	C748.897095,507.198029 743.907593,512.214661 738.972473,517.284363 
	C738.302063,517.973022 738.688171,518.840698 739.658142,520.031311 
z"/>
<path fill="#000000" opacity="1.000000" stroke="none" 
	d="
M354.751373,435.447998 
	C355.091400,444.274933 354.187653,452.507599 351.455902,460.474426 
	C348.109436,470.233917 352.514282,478.823395 355.303436,487.766113 
	C357.266632,481.494263 358.381256,475.175751 360.530273,469.101379 
	C361.782074,465.563019 363.547211,462.430359 365.750336,459.525726 
	C369.410797,454.699646 372.309875,455.153870 374.597687,460.893066 
	C377.103180,467.178406 376.579071,473.652985 375.298828,480.091553 
	C373.462494,489.326691 369.691315,497.862640 365.320282,506.115540 
	C363.691162,509.191406 363.479950,511.943634 364.775299,515.118591 
	C367.028015,520.640137 368.188782,526.686218 372.665344,531.094910 
	C374.540619,532.941711 376.366211,534.971069 379.511871,534.482117 
	C380.172211,532.295288 378.441467,531.055298 377.628357,529.567322 
	C366.809601,509.768890 371.181000,487.285767 387.109344,474.379578 
	C395.972900,467.197784 407.545044,468.224823 415.035461,476.572388 
	C411.880585,478.649811 408.663452,480.635742 405.593628,482.827942 
	C402.703522,484.891815 399.660706,487.350616 400.457123,491.284363 
	C401.259186,495.245850 404.183258,497.738739 408.239380,498.904480 
	C411.671539,499.890869 415.067200,500.306274 418.596802,499.765991 
	C420.010162,499.549622 421.514038,498.722961 422.909729,500.221436 
	C423.249725,502.595062 421.081818,503.468658 419.846252,504.873260 
	C416.119507,509.109863 413.574066,513.878357 413.075012,519.574158 
	C412.714203,523.691956 414.622955,525.756714 418.809540,525.977234 
	C427.740997,526.447693 436.009369,524.881897 442.834534,517.946899 
	C444.385101,520.980530 442.467224,522.268005 441.271057,523.549072 
	C437.081421,528.036194 437.479248,533.415405 438.662048,538.618286 
	C439.694397,543.159546 444.299133,545.372253 448.959961,544.075073 
	C451.806702,543.282776 454.511017,541.978699 457.322571,540.887634 
	C458.985443,542.513245 458.601501,544.640259 458.901428,546.526062 
	C460.423798,556.098633 465.576294,558.454041 473.483704,552.977661 
	C475.753632,551.405579 477.690643,549.352966 480.029175,547.302490 
	C482.904175,550.401978 483.394958,554.309570 484.795105,557.711548 
	C485.679260,559.859863 483.526306,560.734375 481.879059,561.661011 
	C477.096588,564.351196 472.246155,566.956543 467.675842,569.978455 
	C462.542694,573.372498 458.807709,578.015747 457.223877,584.126221 
	C455.960785,588.999329 457.121338,590.642090 462.015686,591.006897 
	C462.347839,591.031616 462.681641,591.032898 463.014557,591.048523 
	C472.874756,591.511658 473.079041,591.674744 472.997681,601.432983 
	C472.961670,605.749695 472.831635,609.448792 479.253693,608.551880 
	C483.314758,607.984680 484.512024,611.198059 484.031464,614.918457 
	C483.251373,620.958130 481.640350,626.905945 482.424591,633.362610 
	C478.910492,633.126343 476.964020,630.951294 474.828033,629.241272 
	C468.979187,624.558777 466.428253,624.308716 459.973297,628.037659 
	C457.490540,629.471863 456.156006,628.018250 455.363770,625.985046 
	C454.338348,623.353333 453.602234,620.609314 452.731079,617.917053 
	C452.187134,616.235962 452.006592,614.285645 449.669098,613.611877 
	C446.571045,616.896973 450.887207,620.735657 448.661560,624.139038 
	C444.200287,624.803101 441.700775,620.902588 438.302460,619.198853 
	C434.407013,617.245789 434.838959,612.373657 433.162628,608.650635 
	C430.549194,609.842712 429.981781,611.952209 429.406616,613.969421 
	C428.891083,615.777466 429.243958,617.954590 426.854187,619.293518 
	C425.019592,616.686646 425.691925,613.975220 426.017426,611.494141 
	C426.960327,604.306946 424.317383,599.283081 417.695160,596.281311 
	C415.884155,595.460449 414.181824,594.381958 412.482635,593.335693 
	C406.275513,589.513794 399.840240,589.759644 394.124420,594.490540 
	C388.613281,599.052002 383.277557,603.832886 377.994263,608.659119 
	C375.145630,611.261414 372.636108,612.430969 368.740997,610.156738 
	C362.819336,606.699280 355.852631,607.185120 349.281921,606.345337 
	C344.549316,605.740540 340.496552,604.761047 339.090942,599.288391 
	C338.325012,596.306274 335.772095,595.737488 333.047913,596.544128 
	C330.076904,597.423767 328.293427,596.082642 326.864044,593.709229 
	C322.728851,586.843018 320.416382,579.478394 320.775238,571.399658 
	C321.110931,563.841614 324.395966,559.027222 331.717926,557.156616 
	C337.629974,555.646301 341.410583,552.569580 343.504700,546.904358 
	C344.473816,544.282593 345.882141,541.710938 347.594604,539.507812 
	C349.292816,537.322937 351.623474,535.629639 354.266388,533.172546 
	C349.469727,529.541687 344.343170,528.974792 339.433838,528.402649 
	C333.646851,527.728149 327.719513,527.745117 322.108185,529.674866 
	C302.343140,536.471924 285.140533,531.301208 269.424011,518.733643 
	C266.330627,516.259949 266.163116,514.020447 269.624756,512.190735 
	C274.909729,509.397308 280.363281,506.908020 286.342621,505.779724 
	C309.038055,501.497192 330.012360,505.564362 349.268707,518.419678 
	C351.826691,520.127380 354.401642,521.993896 357.658844,522.570435 
	C357.588409,514.442444 355.834320,511.863617 347.289062,509.585266 
	C328.087128,504.465576 312.763733,493.429932 299.543915,479.073883 
	C292.353333,471.265259 288.820801,461.901825 288.803070,451.326752 
	C288.788757,442.780975 292.466492,440.074707 300.562469,442.563904 
	C314.036560,446.706696 324.760773,454.912323 333.820953,465.500977 
	C339.235199,471.828522 343.918060,478.612366 346.892395,486.508911 
	C344.302979,476.069275 341.998901,465.949493 335.739502,456.554810 
	C321.929443,435.827423 316.357269,412.569244 319.812805,387.562805 
	C321.014130,378.869141 323.622528,377.873413 330.688599,383.284424 
	C339.204498,389.805664 343.601715,399.230225 348.216064,408.471436 
	C352.380798,416.812256 353.780762,425.851685 354.751373,435.447998 
M412.618439,543.716431 
	C411.229584,543.201477 409.842255,542.621338 408.398346,543.579041 
	C410.969818,548.599792 411.628296,548.976746 416.991394,548.144714 
	C415.601471,546.665161 414.395599,545.381592 412.618439,543.716431 
z"/>
<path fill="#000000" opacity="1.000000" stroke="none" 
	d="
M522.541016,302.069397 
	C536.989868,306.049896 540.439453,315.087067 532.538574,327.371857 
	C529.734436,331.731842 526.577515,335.859772 522.375305,338.942291 
	C519.914307,340.747559 519.216309,342.624695 519.541138,345.703003 
	C520.061829,350.638123 520.060303,355.707703 517.434814,360.263733 
	C515.269409,364.021301 512.585876,364.485535 510.130493,360.949890 
	C506.465546,355.672516 501.571320,353.179962 495.395020,353.086121 
	C490.849731,353.017090 487.189514,349.681335 482.353882,350.315857 
	C477.226501,350.988647 476.741730,356.717499 472.748993,358.205872 
	C470.332550,357.668152 469.981293,355.276733 468.066650,353.653625 
	C467.422516,356.688080 467.874176,360.089813 463.821045,361.024139 
	C458.892975,362.160156 454.460968,363.614044 450.154053,358.946503 
	C442.095917,350.213745 435.557922,340.630035 433.018372,328.968262 
	C430.641266,318.052277 433.996338,307.537384 437.044464,297.169434 
	C438.071686,293.675507 440.912384,293.294037 443.911102,294.799347 
	C447.663757,296.683075 450.918396,299.259094 453.699463,302.428009 
	C454.893921,303.789124 455.837341,305.426727 457.547272,306.188171 
	C458.593872,306.209229 459.174316,305.592316 459.446320,304.789154 
	C462.736847,295.074310 468.596497,286.710052 473.469757,277.821411 
	C475.411316,274.280060 477.562012,274.108917 480.766876,275.904938 
	C489.906464,281.026855 495.021240,288.936981 496.039520,299.136322 
	C496.905060,307.805695 495.969574,316.363495 492.075256,324.483337 
	C489.668793,329.500946 487.265747,334.736481 488.651062,341.084564 
	C492.491821,340.158569 495.500732,338.136902 498.501801,336.306824 
	C500.635254,335.005859 499.374176,332.699432 499.077850,330.787292 
	C496.578308,314.659576 506.544434,302.215973 522.541016,302.069397 
z"/>
<path fill="#000000" opacity="1.000000" stroke="none" 
	d="
M451.178741,508.973419 
	C444.753632,505.167572 441.282562,499.302612 439.655304,492.881195 
	C433.110657,467.055481 446.559845,445.614441 472.363525,440.479919 
	C482.708496,438.421387 492.973175,440.914673 502.455597,447.187256 
	C516.122498,456.227844 518.877136,468.941742 517.590576,483.743195 
	C516.654663,494.510162 513.442078,504.241821 505.034454,511.644257 
	C496.228790,519.397095 485.980591,520.635742 474.781891,518.950012 
	C466.092102,517.641907 459.423126,512.018555 451.178741,508.973419 
z"/>
<path fill="#000000" opacity="1.000000" stroke="none" 
	d="
M391.968262,339.126648 
	C384.443329,332.671509 378.506622,325.259583 372.745605,317.713623 
	C369.726044,313.758484 370.458405,311.121460 375.354797,310.170166 
	C387.892944,307.734192 400.544159,307.150787 412.822784,311.475800 
	C421.511047,314.536072 427.898132,320.537811 429.481354,329.818665 
	C431.233551,340.090057 437.713989,347.815277 442.185059,356.626160 
	C443.811188,359.830688 445.429596,363.039215 447.119812,366.380920 
	C444.528351,367.254730 444.075378,365.456390 443.200165,364.434509 
	C440.280304,361.025421 437.570618,357.417938 434.462677,354.192688 
	C429.913757,349.472076 424.569000,346.782288 417.600647,347.060547 
	C408.392548,347.428253 399.847870,344.734497 391.968262,339.126648 
z"/>
<path fill="#000000" opacity="1.000000" stroke="none" 
	d="
M523.078918,411.074280 
	C518.938049,414.002808 515.631104,417.556763 511.231415,419.488708 
	C509.285309,417.197662 510.277924,414.934387 510.014984,412.881805 
	C509.312988,407.402374 508.405273,402.111450 503.828156,398.213318 
	C501.320282,396.077454 502.340942,392.190704 505.595825,391.706787 
	C507.730164,391.389435 508.696533,390.055969 509.967865,388.785889 
	C515.763000,382.996368 519.885132,382.860809 526.421448,388.182587 
	C531.534241,392.345367 532.280823,398.204956 528.316956,404.024017 
	C526.735840,406.345184 525.608276,409.009979 523.078918,411.074280 
z"/>
<path fill="#000000" opacity="1.000000" stroke="none" 
	d="
M424.429749,451.996521 
	C424.984406,452.885590 424.828796,453.946869 424.240692,453.750000 
	C418.169617,451.717499 412.349457,452.029633 406.565613,455.935120 
	C408.091705,450.863892 406.508881,447.603394 403.161743,444.905762 
	C402.129822,444.074097 401.999481,442.851776 402.659790,441.740631 
	C406.037689,436.056335 408.951355,429.999176 414.529144,425.991425 
	C415.881744,425.019592 417.439606,424.283752 419.165314,425.684967 
	C419.099945,426.121338 419.202179,426.755310 418.935577,427.026276 
	C411.847809,434.228333 411.733154,439.214752 418.700470,446.780212 
	C420.374664,448.598114 422.376678,450.114075 424.429749,451.996521 
z"/>
<path fill="#000000" opacity="1.000000" stroke="none" 
	d="
M557.244507,617.494324 
	C557.335571,620.862976 556.047241,623.786316 556.987488,626.787781 
	C557.421448,628.173340 556.560852,629.124207 555.391174,629.492065 
	C547.972351,631.824890 540.450745,633.455811 531.101501,632.659363 
	C536.411560,628.562439 541.537048,626.735657 545.672119,623.336731 
	C548.349976,621.135620 550.398682,624.547180 552.618958,627.143127 
	C553.004944,618.451660 555.726807,610.674011 552.484497,602.768921 
	C555.711304,607.057800 557.870667,611.611450 557.244507,617.494324 
z"/>
<path fill="#000000" opacity="1.000000" stroke="none" 
	d="
M503.396851,551.273315 
	C500.844055,551.914795 499.656799,550.864746 499.966858,548.812500 
	C500.398376,545.956055 500.361023,542.871582 502.814819,539.990845 
	C506.033051,542.540710 509.130676,544.994934 512.336731,547.535095 
	C509.762085,550.577271 506.267303,549.628906 503.396851,551.273315 
z"/>
<path fill="#000000" opacity="1.000000" stroke="none" 
	d="
M539.727539,613.663757 
	C541.538757,610.575867 541.752991,607.528503 541.152893,603.433655 
	C545.829834,607.813904 545.309631,612.071350 543.551758,616.259705 
	C541.904541,620.184326 536.920166,621.643921 530.438354,620.444397 
	C532.962891,617.391418 537.513428,617.400818 539.727539,613.663757 
z"/>
<path fill="#000000" opacity="1.000000" stroke="none" 
	d="
M444.156433,410.491821 
	C443.377319,409.872070 442.831482,409.075165 443.613556,408.777191 
	C447.047028,407.469208 453.732147,411.448486 453.955475,415.054535 
	C454.111237,417.568970 455.195374,420.107239 454.218262,423.299835 
	C449.800354,419.520752 449.018921,413.540100 444.156433,410.491821 
z"/>
<path fill="#000000" opacity="1.000000" stroke="none" 
	d="
M475.549133,407.149780 
	C476.577240,406.882202 478.235565,405.883148 477.458679,407.769958 
	C476.113281,411.037506 474.182037,414.063873 472.266296,417.618591 
	C469.881683,414.844818 469.044006,411.948029 468.070099,408.860718 
	C470.530243,407.793243 473.295776,409.130280 475.549133,407.149780 
z"/>
<path fill="#000000" opacity="1.000000" stroke="none" 
	d="
M523.743652,614.185669 
	C521.807251,614.063293 520.012329,614.687866 518.602173,612.271240 
	C522.897156,610.001526 528.098083,609.936035 531.995117,606.750488 
	C530.653748,610.667603 527.966064,612.999329 523.743652,614.185669 
z"/>
<path fill="#000000" opacity="1.000000" stroke="none" 
	d="
M500.454132,399.583069 
	C498.355164,403.659912 496.187408,407.440369 494.071045,411.131195 
	C491.484436,410.383301 491.514343,407.910553 492.319489,407.594269 
	C496.372864,406.002075 494.674042,399.003632 500.454132,399.583069 
z"/>
<path fill="#000000" opacity="1.000000" stroke="none" 
	d="
M427.102325,423.176208 
	C429.767426,423.522766 431.185455,424.481934 430.246582,427.342224 
	C427.420105,428.221405 425.472900,426.234863 423.081757,425.723785 
	C423.692169,423.195374 425.297882,423.321381 427.102325,423.176208 
z"/>
<path fill="#000000" opacity="1.000000" stroke="none" 
	d="
M534.836182,592.071106 
	C537.606567,594.532227 541.229736,596.187195 540.253540,601.040710 
	C537.108521,598.447388 535.430359,595.099121 533.350952,592.073669 
	C533.330627,592.044128 533.552307,591.749146 533.654541,591.752930 
	C533.972229,591.764648 534.286804,591.860840 534.836182,592.071106 
z"/>
<path fill="#000000" opacity="1.000000" stroke="none" 
	d="
M664.695557,490.867310 
	C664.249268,502.144806 659.497925,511.056915 652.309753,518.930542 
	C648.274109,523.351013 648.435913,523.459839 653.516418,526.378479 
	C669.735535,535.695984 680.172058,548.743347 680.256104,568.367065 
	C680.273560,572.456177 678.676392,575.521912 674.704224,576.928040 
	C669.760986,578.677856 665.900269,575.767700 664.755310,569.507812 
	C663.060608,560.242615 659.592712,551.954407 651.992554,545.880615 
	C643.522278,539.111450 634.387146,535.342529 623.290039,538.633118 
	C617.668335,540.300110 613.558716,538.761230 611.490723,534.878723 
	C609.615173,531.357422 610.259338,528.031555 612.871948,525.207520 
	C614.828552,523.092712 617.600647,522.131531 620.193909,521.008118 
	C628.591919,517.370178 635.956055,512.401733 641.339355,504.833160 
	C644.671265,500.148712 647.009521,495.047516 647.831482,489.313477 
	C648.857178,482.159119 647.390686,475.883606 642.156128,470.483826 
	C628.108948,455.993195 621.534973,438.512451 622.023254,418.367859 
	C622.132446,413.863281 622.574707,409.369598 623.947449,405.057495 
	C625.520996,400.114594 629.915283,397.315094 634.181335,398.316895 
	C638.562927,399.345856 640.298035,402.831421 639.677734,408.520447 
	C637.977051,424.116821 639.066711,438.993378 649.136230,452.232300 
	C657.237488,462.883423 670.594055,466.932129 682.879395,461.477814 
	C684.704407,460.667542 686.519470,459.802368 688.410645,459.179901 
	C692.761536,457.747833 696.811340,459.612152 698.674683,463.766174 
	C700.523987,467.888611 699.495422,471.763458 695.708923,474.243408 
	C689.084595,478.581970 681.654236,480.174957 673.858215,480.260773 
	C664.724854,480.361328 664.917114,480.028259 665.159241,488.519653 
	C665.177734,489.167725 664.912598,489.823853 664.695557,490.867310 
z"/>
<path fill="#000000" opacity="1.000000" stroke="none" 
	d="
M705.306152,609.007080 
	C698.533325,621.932678 690.128967,633.013672 677.541260,640.111755 
	C663.429565,648.069214 648.518066,649.163147 633.268982,643.692932 
	C628.049561,641.820618 625.591431,637.808655 626.563843,633.939453 
	C627.643616,629.643066 630.958374,627.619141 636.722961,627.990845 
	C639.369751,628.161560 642.021484,628.555725 644.622681,629.085327 
	C659.509827,632.116638 671.425415,626.973389 681.028198,615.762024 
	C684.378296,611.850769 687.198120,607.526123 689.564026,602.899902 
	C690.762878,600.555603 692.270569,598.263733 694.073547,596.360107 
	C696.419800,593.882690 699.428467,593.097168 702.729553,594.712219 
	C706.155457,596.388367 707.635681,599.127930 706.972412,602.866699 
	C706.625793,604.820190 705.958618,606.716736 705.306152,609.007080 
z"/>
<path fill="#000000" opacity="1.000000" stroke="none" 
	d="
M634.347778,715.383789 
	C643.732178,708.809692 647.019104,699.523987 647.844299,688.986023 
	C648.116455,685.511475 648.214722,681.999023 648.826477,678.581604 
	C649.589355,674.320435 652.376526,671.804626 656.774109,671.742188 
	C661.056335,671.681335 663.313232,674.196228 664.328430,678.272156 
	C668.158386,693.648560 658.178833,718.845825 644.739807,727.129456 
	C641.817139,728.930969 638.691956,730.937073 634.989441,729.038513 
	C629.428955,726.187073 629.061707,720.563477 634.347778,715.383789 
z"/>
</svg>